# MagicaVoxel @ Ephtracy

# group
o 

# material
mtllib arrow_selection0.mtl
usemtl palette

# normals
vn -1 0 0
vn 1 0 0
vn 0 0 1
vn 0 0 -1
vn 0 -1 0
vn 0 1 0

# texcoords
vt 0.853516 0.5
vt 0.994141 0.5

# verts
v -0.1 1.9 0.1
v -0.1 1.9 -0.1
v -0.1 2.1 0.2
v -0.1 2.1 0.1
v -0.1 2.1 -0.1
v -0.1 2.1 -0.2
v -0.1 2.2 0.1
v -0.1 2.2 -0.1
v -0.1 2.3 0.3
v -0.1 2.3 0.2
v -0.1 2.3 -0.2
v -0.1 2.3 -0.3
v -0.1 2.4 0.2
v -0.1 2.4 0.1
v -0.1 2.4 -0.1
v -0.1 2.4 -0.2
v -0.1 2.5 0.4
v -0.1 2.5 0.3
v -0.1 2.5 -0.3
v -0.1 2.5 -0.4
v -0.1 2.6 0.3
v -0.1 2.6 0.2
v -0.1 2.6 -0.2
v -0.1 2.6 -0.3
v -0.1 2.7 0.5
v -0.1 2.7 0.4
v -0.1 2.7 -0.4
v -0.1 2.7 -0.5
v -0.1 2.8 0.4
v -0.1 2.8 0.3
v -0.1 2.8 -0.3
v -0.1 2.8 -0.4
v -0.1 2.9 0.6
v -0.1 2.9 0.5
v -0.1 2.9 -0.5
v -0.1 2.9 -0.6
v -0.1 3 0.5
v -0.1 3 0.4
v -0.1 3 -0.4
v -0.1 3 -0.5
v -0.1 3.3 0.5
v -0.1 3.3 -0.5
v -0.1 3.4 0.6
v -0.1 3.4 -0.6
v 0.1 1.9 0.1
v 0.1 1.9 -0.1
v 0.1 2.1 0.2
v 0.1 2.1 0.1
v 0.1 2.1 -0.1
v 0.1 2.1 -0.2
v 0.1 2.2 0.1
v 0.1 2.2 -0.1
v 0.1 2.3 0.3
v 0.1 2.3 0.2
v 0.1 2.3 -0.2
v 0.1 2.3 -0.3
v 0.1 2.4 0.2
v 0.1 2.4 0.1
v 0.1 2.4 -0.1
v 0.1 2.4 -0.2
v 0.1 2.5 0.4
v 0.1 2.5 0.3
v 0.1 2.5 -0.3
v 0.1 2.5 -0.4
v 0.1 2.6 0.3
v 0.1 2.6 0.2
v 0.1 2.6 -0.2
v 0.1 2.6 -0.3
v 0.1 2.7 0.5
v 0.1 2.7 0.4
v 0.1 2.7 -0.4
v 0.1 2.7 -0.5
v 0.1 2.8 0.4
v 0.1 2.8 0.3
v 0.1 2.8 -0.3
v 0.1 2.8 -0.4
v 0.1 2.9 0.6
v 0.1 2.9 0.5
v 0.1 2.9 -0.5
v 0.1 2.9 -0.6
v 0.1 3 0.5
v 0.1 3 0.4
v 0.1 3 -0.4
v 0.1 3 -0.5
v 0.1 3.3 0.5
v 0.1 3.3 -0.5
v 0.1 3.4 0.6
v 0.1 3.4 -0.6
v -0.1 2.9 0.6
v -0.1 3.4 0.6
v 0.1 2.9 0.6
v 0.1 3.4 0.6
v -0.1 2.7 0.5
v -0.1 2.9 0.5
v 0.1 2.7 0.5
v 0.1 2.9 0.5
v -0.1 2.5 0.4
v -0.1 2.7 0.4
v 0.1 2.5 0.4
v 0.1 2.7 0.4
v -0.1 2.3 0.3
v -0.1 2.5 0.3
v 0.1 2.3 0.3
v 0.1 2.5 0.3
v -0.1 2.1 0.2
v -0.1 2.3 0.2
v 0.1 2.1 0.2
v 0.1 2.3 0.2
v -0.1 1.9 0.1
v -0.1 2.1 0.1
v 0.1 1.9 0.1
v 0.1 2.1 0.1
v -0.1 1.9 -0.1
v -0.1 2.1 -0.1
v 0.1 1.9 -0.1
v 0.1 2.1 -0.1
v -0.1 2.1 -0.2
v -0.1 2.3 -0.2
v 0.1 2.1 -0.2
v 0.1 2.3 -0.2
v -0.1 2.3 -0.3
v -0.1 2.5 -0.3
v 0.1 2.3 -0.3
v 0.1 2.5 -0.3
v -0.1 2.5 -0.4
v -0.1 2.7 -0.4
v 0.1 2.5 -0.4
v 0.1 2.7 -0.4
v -0.1 2.7 -0.5
v -0.1 2.9 -0.5
v 0.1 2.7 -0.5
v 0.1 2.9 -0.5
v -0.1 2.9 -0.6
v -0.1 3.4 -0.6
v 0.1 2.9 -0.6
v 0.1 3.4 -0.6
v -0.1 1.9 0.1
v 0.1 1.9 0.1
v -0.1 1.9 -0.1
v 0.1 1.9 -0.1
v -0.1 2.1 0.2
v 0.1 2.1 0.2
v -0.1 2.1 0.1
v 0.1 2.1 0.1
v -0.1 2.1 -0.1
v 0.1 2.1 -0.1
v -0.1 2.1 -0.2
v 0.1 2.1 -0.2
v -0.1 2.3 0.3
v 0.1 2.3 0.3
v -0.1 2.3 0.2
v 0.1 2.3 0.2
v -0.1 2.3 -0.2
v 0.1 2.3 -0.2
v -0.1 2.3 -0.3
v 0.1 2.3 -0.3
v -0.1 2.5 0.4
v 0.1 2.5 0.4
v -0.1 2.5 0.3
v 0.1 2.5 0.3
v -0.1 2.5 -0.3
v 0.1 2.5 -0.3
v -0.1 2.5 -0.4
v 0.1 2.5 -0.4
v -0.1 2.7 0.5
v 0.1 2.7 0.5
v -0.1 2.7 0.4
v 0.1 2.7 0.4
v -0.1 2.7 -0.4
v 0.1 2.7 -0.4
v -0.1 2.7 -0.5
v 0.1 2.7 -0.5
v -0.1 2.9 0.6
v 0.1 2.9 0.6
v -0.1 2.9 0.5
v 0.1 2.9 0.5
v -0.1 2.9 -0.5
v 0.1 2.9 -0.5
v -0.1 2.9 -0.6
v 0.1 2.9 -0.6
v -0.1 3.4 0.6
v 0.1 3.4 0.6
v -0.1 3.4 -0.6
v 0.1 3.4 -0.6

# faces
f 4/2/1 2/2/1 1/2/1
f 5/2/1 2/2/1 4/2/1
f 7/2/1 4/2/1 3/2/1
f 7/2/1 6/2/1 5/2/1
f 7/2/1 5/2/1 4/2/1
f 8/2/1 6/2/1 7/2/1
f 10/2/1 7/2/1 3/2/1
f 11/2/1 6/2/1 8/2/1
f 13/2/1 10/2/1 9/2/1
f 13/2/1 7/2/1 10/2/1
f 14/1/1 8/1/1 7/1/1
f 14/2/1 7/2/1 13/2/1
f 15/2/1 12/2/1 11/2/1
f 15/1/1 8/1/1 14/1/1
f 15/2/1 11/2/1 8/2/1
f 16/2/1 12/2/1 15/2/1
f 18/2/1 13/2/1 9/2/1
f 19/2/1 12/2/1 16/2/1
f 21/2/1 18/2/1 17/2/1
f 21/2/1 13/2/1 18/2/1
f 22/1/1 14/1/1 13/1/1
f 22/2/1 13/2/1 21/2/1
f 22/1/1 15/1/1 14/1/1
f 22/1/1 16/1/1 15/1/1
f 23/2/1 20/2/1 19/2/1
f 23/1/1 16/1/1 22/1/1
f 23/2/1 19/2/1 16/2/1
f 24/2/1 20/2/1 23/2/1
f 26/2/1 21/2/1 17/2/1
f 27/2/1 20/2/1 24/2/1
f 29/2/1 26/2/1 25/2/1
f 29/2/1 21/2/1 26/2/1
f 30/1/1 22/1/1 21/1/1
f 30/2/1 21/2/1 29/2/1
f 30/1/1 23/1/1 22/1/1
f 30/1/1 24/1/1 23/1/1
f 31/2/1 28/2/1 27/2/1
f 31/1/1 24/1/1 30/1/1
f 31/2/1 27/2/1 24/2/1
f 32/2/1 28/2/1 31/2/1
f 34/2/1 29/2/1 25/2/1
f 35/2/1 28/2/1 32/2/1
f 37/2/1 34/2/1 33/2/1
f 37/2/1 29/2/1 34/2/1
f 38/1/1 30/1/1 29/1/1
f 38/2/1 29/2/1 37/2/1
f 38/1/1 31/1/1 30/1/1
f 38/1/1 32/1/1 31/1/1
f 39/2/1 36/2/1 35/2/1
f 39/1/1 32/1/1 38/1/1
f 39/2/1 35/2/1 32/2/1
f 40/2/1 36/2/1 39/2/1
f 41/2/1 37/2/1 33/2/1
f 41/1/1 38/1/1 37/1/1
f 41/1/1 40/1/1 39/1/1
f 41/1/1 39/1/1 38/1/1
f 42/2/1 36/2/1 40/2/1
f 42/1/1 40/1/1 41/1/1
f 43/2/1 41/2/1 33/2/1
f 43/2/1 42/2/1 41/2/1
f 44/2/1 36/2/1 42/2/1
f 44/2/1 42/2/1 43/2/1
f 45/2/2 46/2/2 48/2/2
f 48/2/2 46/2/2 49/2/2
f 47/2/2 48/2/2 51/2/2
f 49/2/2 50/2/2 51/2/2
f 48/2/2 49/2/2 51/2/2
f 51/2/2 50/2/2 52/2/2
f 47/2/2 51/2/2 54/2/2
f 52/2/2 50/2/2 55/2/2
f 53/2/2 54/2/2 57/2/2
f 54/2/2 51/2/2 57/2/2
f 51/1/2 52/1/2 58/1/2
f 57/2/2 51/2/2 58/2/2
f 55/2/2 56/2/2 59/2/2
f 58/1/2 52/1/2 59/1/2
f 52/2/2 55/2/2 59/2/2
f 59/2/2 56/2/2 60/2/2
f 53/2/2 57/2/2 62/2/2
f 60/2/2 56/2/2 63/2/2
f 61/2/2 62/2/2 65/2/2
f 62/2/2 57/2/2 65/2/2
f 57/1/2 58/1/2 66/1/2
f 65/2/2 57/2/2 66/2/2
f 58/1/2 59/1/2 66/1/2
f 59/1/2 60/1/2 66/1/2
f 63/2/2 64/2/2 67/2/2
f 66/1/2 60/1/2 67/1/2
f 60/2/2 63/2/2 67/2/2
f 67/2/2 64/2/2 68/2/2
f 61/2/2 65/2/2 70/2/2
f 68/2/2 64/2/2 71/2/2
f 69/2/2 70/2/2 73/2/2
f 70/2/2 65/2/2 73/2/2
f 65/1/2 66/1/2 74/1/2
f 73/2/2 65/2/2 74/2/2
f 66/1/2 67/1/2 74/1/2
f 67/1/2 68/1/2 74/1/2
f 71/2/2 72/2/2 75/2/2
f 74/1/2 68/1/2 75/1/2
f 68/2/2 71/2/2 75/2/2
f 75/2/2 72/2/2 76/2/2
f 69/2/2 73/2/2 78/2/2
f 76/2/2 72/2/2 79/2/2
f 77/2/2 78/2/2 81/2/2
f 78/2/2 73/2/2 81/2/2
f 73/1/2 74/1/2 82/1/2
f 81/2/2 73/2/2 82/2/2
f 74/1/2 75/1/2 82/1/2
f 75/1/2 76/1/2 82/1/2
f 79/2/2 80/2/2 83/2/2
f 82/1/2 76/1/2 83/1/2
f 76/2/2 79/2/2 83/2/2
f 83/2/2 80/2/2 84/2/2
f 77/2/2 81/2/2 85/2/2
f 81/1/2 82/1/2 85/1/2
f 83/1/2 84/1/2 85/1/2
f 82/1/2 83/1/2 85/1/2
f 84/2/2 80/2/2 86/2/2
f 85/1/2 84/1/2 86/1/2
f 77/2/2 85/2/2 87/2/2
f 85/2/2 86/2/2 87/2/2
f 86/2/2 80/2/2 88/2/2
f 87/2/2 86/2/2 88/2/2
f 91/2/3 90/2/3 89/2/3
f 92/2/3 90/2/3 91/2/3
f 95/2/3 94/2/3 93/2/3
f 96/2/3 94/2/3 95/2/3
f 99/2/3 98/2/3 97/2/3
f 100/2/3 98/2/3 99/2/3
f 103/2/3 102/2/3 101/2/3
f 104/2/3 102/2/3 103/2/3
f 107/2/3 106/2/3 105/2/3
f 108/2/3 106/2/3 107/2/3
f 111/2/3 110/2/3 109/2/3
f 112/2/3 110/2/3 111/2/3
f 113/2/4 114/2/4 115/2/4
f 115/2/4 114/2/4 116/2/4
f 117/2/4 118/2/4 119/2/4
f 119/2/4 118/2/4 120/2/4
f 121/2/4 122/2/4 123/2/4
f 123/2/4 122/2/4 124/2/4
f 125/2/4 126/2/4 127/2/4
f 127/2/4 126/2/4 128/2/4
f 129/2/4 130/2/4 131/2/4
f 131/2/4 130/2/4 132/2/4
f 133/2/4 134/2/4 135/2/4
f 135/2/4 134/2/4 136/2/4
f 139/2/5 138/2/5 137/2/5
f 140/2/5 138/2/5 139/2/5
f 143/2/5 142/2/5 141/2/5
f 144/2/5 142/2/5 143/2/5
f 147/2/5 146/2/5 145/2/5
f 148/2/5 146/2/5 147/2/5
f 151/2/5 150/2/5 149/2/5
f 152/2/5 150/2/5 151/2/5
f 155/2/5 154/2/5 153/2/5
f 156/2/5 154/2/5 155/2/5
f 159/2/5 158/2/5 157/2/5
f 160/2/5 158/2/5 159/2/5
f 163/2/5 162/2/5 161/2/5
f 164/2/5 162/2/5 163/2/5
f 167/2/5 166/2/5 165/2/5
f 168/2/5 166/2/5 167/2/5
f 171/2/5 170/2/5 169/2/5
f 172/2/5 170/2/5 171/2/5
f 175/2/5 174/2/5 173/2/5
f 176/2/5 174/2/5 175/2/5
f 179/2/5 178/2/5 177/2/5
f 180/2/5 178/2/5 179/2/5
f 181/2/6 182/2/6 183/2/6
f 183/2/6 182/2/6 184/2/6
