# MagicaVoxel @ Ephtracy

# group
o 

# material
mtllib prebuildarea_1.mtl
usemtl palette

# normals
vn -1 0 0
vn 1 0 0
vn 0 0 1
vn 0 0 -1
vn 0 -1 0
vn 0 1 0

# texcoords
vt 0.162109 0.5
vt 0.990234 0.5

# verts
v -1.6 0 1.6
v -1.6 0 1.1
v -1.6 0 0.9
v -1.6 0 0.7
v -1.6 0 0.5
v -1.6 0 0.3
v -1.6 0 0.1
v -1.6 0 -0.1
v -1.6 0 -0.3
v -1.6 0 -0.5
v -1.6 0 -0.7
v -1.6 0 -0.9
v -1.6 0 -1.1
v -1.6 0 -1.3
v -1.6 0 -1.5
v -1.6 0 -1.6
v -1.6 0.1 1.6
v -1.6 0.1 1.1
v -1.6 0.1 0.9
v -1.6 0.1 0.7
v -1.6 0.1 0.5
v -1.6 0.1 0.3
v -1.6 0.1 0.1
v -1.6 0.1 -0.1
v -1.6 0.1 -0.3
v -1.6 0.1 -0.5
v -1.6 0.1 -0.7
v -1.6 0.1 -0.9
v -1.6 0.1 -1.1
v -1.6 0.1 -1.3
v -1.6 0.1 -1.5
v -1.6 0.1 -1.6
v -1.2 0 1.2
v -1.2 0 1.1
v -1.2 0 0.9
v -1.2 0 0.7
v -1.2 0 0.5
v -1.2 0 0.3
v -1.2 0 0.1
v -1.2 0 -0.1
v -1.2 0 -0.3
v -1.2 0 -0.5
v -1.2 0 -0.7
v -1.2 0 -0.9
v -1.2 0 -1.1
v -1.2 0 -1.3
v -1.2 0 -1.5
v -1.2 0 -1.6
v -1.2 0.1 1.2
v -1.2 0.1 1.1
v -1.2 0.1 0.9
v -1.2 0.1 0.7
v -1.2 0.1 0.5
v -1.2 0.1 0.3
v -1.2 0.1 0.1
v -1.2 0.1 -0.1
v -1.2 0.1 -0.3
v -1.2 0.1 -0.5
v -1.2 0.1 -0.7
v -1.2 0.1 -0.9
v -1.2 0.1 -1.1
v -1.2 0.1 -1.3
v -1.2 0.1 -1.5
v -1.2 0.1 -1.6
v 1.6 0 1.6
v 1.6 0 1.2
v 1.6 0.1 1.6
v 1.6 0.1 1.2
v -1.6 0 1.6
v -1.6 0.1 1.6
v -1.1 0 1.6
v -1.1 0.1 1.6
v -0.9 0 1.6
v -0.9 0.1 1.6
v -0.7 0 1.6
v -0.7 0.1 1.6
v -0.5 0 1.6
v -0.5 0.1 1.6
v -0.3 0 1.6
v -0.3 0.1 1.6
v -0.1 0 1.6
v -0.1 0.1 1.6
v 0.1 0 1.6
v 0.1 0.1 1.6
v 0.3 0 1.6
v 0.3 0.1 1.6
v 0.5 0 1.6
v 0.5 0.1 1.6
v 0.7 0 1.6
v 0.7 0.1 1.6
v 0.9 0 1.6
v 0.9 0.1 1.6
v 1.1 0 1.6
v 1.1 0.1 1.6
v 1.3 0 1.6
v 1.3 0.1 1.6
v 1.5 0 1.6
v 1.5 0.1 1.6
v 1.6 0 1.6
v 1.6 0.1 1.6
v -1.2 0 1.2
v -1.2 0.1 1.2
v -1.1 0 1.2
v -1.1 0.1 1.2
v -0.9 0 1.2
v -0.9 0.1 1.2
v -0.7 0 1.2
v -0.7 0.1 1.2
v -0.5 0 1.2
v -0.5 0.1 1.2
v -0.3 0 1.2
v -0.3 0.1 1.2
v -0.1 0 1.2
v -0.1 0.1 1.2
v 0.1 0 1.2
v 0.1 0.1 1.2
v 0.3 0 1.2
v 0.3 0.1 1.2
v 0.5 0 1.2
v 0.5 0.1 1.2
v 0.7 0 1.2
v 0.7 0.1 1.2
v 0.9 0 1.2
v 0.9 0.1 1.2
v 1.1 0 1.2
v 1.1 0.1 1.2
v 1.3 0 1.2
v 1.3 0.1 1.2
v 1.5 0 1.2
v 1.5 0.1 1.2
v 1.6 0 1.2
v 1.6 0.1 1.2
v -1.6 0 -1.6
v -1.6 0.1 -1.6
v -1.2 0 -1.6
v -1.2 0.1 -1.6
v -1.6 0 1.6
v -1.1 0 1.6
v -0.9 0 1.6
v -0.7 0 1.6
v -0.5 0 1.6
v -0.3 0 1.6
v -0.1 0 1.6
v 0.1 0 1.6
v 0.3 0 1.6
v 0.5 0 1.6
v 0.7 0 1.6
v 0.9 0 1.6
v 1.1 0 1.6
v 1.3 0 1.6
v 1.5 0 1.6
v 1.6 0 1.6
v -1.5 0 1.5
v -1.3 0 1.5
v -1.5 0 1.3
v -1.3 0 1.3
v -1.2 0 1.2
v -1.1 0 1.2
v -0.9 0 1.2
v -0.7 0 1.2
v -0.5 0 1.2
v -0.3 0 1.2
v -0.1 0 1.2
v 0.1 0 1.2
v 0.3 0 1.2
v 0.5 0 1.2
v 0.7 0 1.2
v 0.9 0 1.2
v 1.1 0 1.2
v 1.3 0 1.2
v 1.5 0 1.2
v 1.6 0 1.2
v -1.6 0 1.1
v -1.2 0 1.1
v -1.6 0 0.9
v -1.2 0 0.9
v -1.6 0 0.7
v -1.2 0 0.7
v -1.6 0 0.5
v -1.2 0 0.5
v -1.6 0 0.3
v -1.2 0 0.3
v -1.6 0 0.1
v -1.2 0 0.1
v -1.6 0 -0.1
v -1.2 0 -0.1
v -1.6 0 -0.3
v -1.2 0 -0.3
v -1.6 0 -0.5
v -1.2 0 -0.5
v -1.6 0 -0.7
v -1.2 0 -0.7
v -1.6 0 -0.9
v -1.2 0 -0.9
v -1.6 0 -1.1
v -1.2 0 -1.1
v -1.6 0 -1.3
v -1.2 0 -1.3
v -1.6 0 -1.5
v -1.2 0 -1.5
v -1.6 0 -1.6
v -1.2 0 -1.6
v -1.6 0.1 1.6
v -1.1 0.1 1.6
v -0.9 0.1 1.6
v -0.7 0.1 1.6
v -0.5 0.1 1.6
v -0.3 0.1 1.6
v -0.1 0.1 1.6
v 0.1 0.1 1.6
v 0.3 0.1 1.6
v 0.5 0.1 1.6
v 0.7 0.1 1.6
v 0.9 0.1 1.6
v 1.1 0.1 1.6
v 1.3 0.1 1.6
v 1.5 0.1 1.6
v 1.6 0.1 1.6
v -1.5 0.1 1.5
v -1.3 0.1 1.5
v -1.5 0.1 1.3
v -1.3 0.1 1.3
v -1.2 0.1 1.2
v -1.1 0.1 1.2
v -0.9 0.1 1.2
v -0.7 0.1 1.2
v -0.5 0.1 1.2
v -0.3 0.1 1.2
v -0.1 0.1 1.2
v 0.1 0.1 1.2
v 0.3 0.1 1.2
v 0.5 0.1 1.2
v 0.7 0.1 1.2
v 0.9 0.1 1.2
v 1.1 0.1 1.2
v 1.3 0.1 1.2
v 1.5 0.1 1.2
v 1.6 0.1 1.2
v -1.6 0.1 1.1
v -1.2 0.1 1.1
v -1.6 0.1 0.9
v -1.2 0.1 0.9
v -1.6 0.1 0.7
v -1.2 0.1 0.7
v -1.6 0.1 0.5
v -1.2 0.1 0.5
v -1.6 0.1 0.3
v -1.2 0.1 0.3
v -1.6 0.1 0.1
v -1.2 0.1 0.1
v -1.6 0.1 -0.1
v -1.2 0.1 -0.1
v -1.6 0.1 -0.3
v -1.2 0.1 -0.3
v -1.6 0.1 -0.5
v -1.2 0.1 -0.5
v -1.6 0.1 -0.7
v -1.2 0.1 -0.7
v -1.6 0.1 -0.9
v -1.2 0.1 -0.9
v -1.6 0.1 -1.1
v -1.2 0.1 -1.1
v -1.6 0.1 -1.3
v -1.2 0.1 -1.3
v -1.6 0.1 -1.5
v -1.2 0.1 -1.5
v -1.6 0.1 -1.6
v -1.2 0.1 -1.6

# faces
f 17/2/1 2/2/1 1/2/1
f 18/1/1 3/1/1 2/1/1
f 18/2/1 2/2/1 17/2/1
f 19/2/1 4/2/1 3/2/1
f 19/1/1 3/1/1 18/1/1
f 20/1/1 5/1/1 4/1/1
f 20/2/1 4/2/1 19/2/1
f 21/2/1 6/2/1 5/2/1
f 21/1/1 5/1/1 20/1/1
f 22/1/1 7/1/1 6/1/1
f 22/2/1 6/2/1 21/2/1
f 23/2/1 8/2/1 7/2/1
f 23/1/1 7/1/1 22/1/1
f 24/1/1 9/1/1 8/1/1
f 24/2/1 8/2/1 23/2/1
f 25/2/1 10/2/1 9/2/1
f 25/1/1 9/1/1 24/1/1
f 26/1/1 11/1/1 10/1/1
f 26/2/1 10/2/1 25/2/1
f 27/2/1 12/2/1 11/2/1
f 27/1/1 11/1/1 26/1/1
f 28/1/1 13/1/1 12/1/1
f 28/2/1 12/2/1 27/2/1
f 29/2/1 14/2/1 13/2/1
f 29/1/1 13/1/1 28/1/1
f 30/1/1 15/1/1 14/1/1
f 30/2/1 14/2/1 29/2/1
f 31/2/1 16/2/1 15/2/1
f 31/1/1 15/1/1 30/1/1
f 32/2/1 16/2/1 31/2/1
f 33/2/2 34/2/2 49/2/2
f 34/1/2 35/1/2 50/1/2
f 49/2/2 34/2/2 50/2/2
f 35/2/2 36/2/2 51/2/2
f 50/1/2 35/1/2 51/1/2
f 36/1/2 37/1/2 52/1/2
f 51/2/2 36/2/2 52/2/2
f 37/2/2 38/2/2 53/2/2
f 52/1/2 37/1/2 53/1/2
f 38/1/2 39/1/2 54/1/2
f 53/2/2 38/2/2 54/2/2
f 39/2/2 40/2/2 55/2/2
f 54/1/2 39/1/2 55/1/2
f 40/1/2 41/1/2 56/1/2
f 55/2/2 40/2/2 56/2/2
f 41/2/2 42/2/2 57/2/2
f 56/1/2 41/1/2 57/1/2
f 42/1/2 43/1/2 58/1/2
f 57/2/2 42/2/2 58/2/2
f 43/2/2 44/2/2 59/2/2
f 58/1/2 43/1/2 59/1/2
f 44/1/2 45/1/2 60/1/2
f 59/2/2 44/2/2 60/2/2
f 45/2/2 46/2/2 61/2/2
f 60/1/2 45/1/2 61/1/2
f 46/1/2 47/1/2 62/1/2
f 61/2/2 46/2/2 62/2/2
f 47/2/2 48/2/2 63/2/2
f 62/1/2 47/1/2 63/1/2
f 63/2/2 48/2/2 64/2/2
f 65/2/2 66/2/2 67/2/2
f 67/2/2 66/2/2 68/2/2
f 71/2/3 70/2/3 69/2/3
f 72/2/3 70/2/3 71/2/3
f 73/1/3 72/1/3 71/1/3
f 74/1/3 72/1/3 73/1/3
f 75/2/3 74/2/3 73/2/3
f 76/2/3 74/2/3 75/2/3
f 77/1/3 76/1/3 75/1/3
f 78/1/3 76/1/3 77/1/3
f 79/2/3 78/2/3 77/2/3
f 80/2/3 78/2/3 79/2/3
f 81/1/3 80/1/3 79/1/3
f 82/1/3 80/1/3 81/1/3
f 83/2/3 82/2/3 81/2/3
f 84/2/3 82/2/3 83/2/3
f 85/1/3 84/1/3 83/1/3
f 86/1/3 84/1/3 85/1/3
f 87/2/3 86/2/3 85/2/3
f 88/2/3 86/2/3 87/2/3
f 89/1/3 88/1/3 87/1/3
f 90/1/3 88/1/3 89/1/3
f 91/2/3 90/2/3 89/2/3
f 92/2/3 90/2/3 91/2/3
f 93/1/3 92/1/3 91/1/3
f 94/1/3 92/1/3 93/1/3
f 95/2/3 94/2/3 93/2/3
f 96/2/3 94/2/3 95/2/3
f 97/1/3 96/1/3 95/1/3
f 98/1/3 96/1/3 97/1/3
f 99/2/3 98/2/3 97/2/3
f 100/2/3 98/2/3 99/2/3
f 101/2/4 102/2/4 103/2/4
f 103/2/4 102/2/4 104/2/4
f 103/1/4 104/1/4 105/1/4
f 105/1/4 104/1/4 106/1/4
f 105/2/4 106/2/4 107/2/4
f 107/2/4 106/2/4 108/2/4
f 107/1/4 108/1/4 109/1/4
f 109/1/4 108/1/4 110/1/4
f 109/2/4 110/2/4 111/2/4
f 111/2/4 110/2/4 112/2/4
f 111/1/4 112/1/4 113/1/4
f 113/1/4 112/1/4 114/1/4
f 113/2/4 114/2/4 115/2/4
f 115/2/4 114/2/4 116/2/4
f 115/1/4 116/1/4 117/1/4
f 117/1/4 116/1/4 118/1/4
f 117/2/4 118/2/4 119/2/4
f 119/2/4 118/2/4 120/2/4
f 119/1/4 120/1/4 121/1/4
f 121/1/4 120/1/4 122/1/4
f 121/2/4 122/2/4 123/2/4
f 123/2/4 122/2/4 124/2/4
f 123/1/4 124/1/4 125/1/4
f 125/1/4 124/1/4 126/1/4
f 125/2/4 126/2/4 127/2/4
f 127/2/4 126/2/4 128/2/4
f 127/1/4 128/1/4 129/1/4
f 129/1/4 128/1/4 130/1/4
f 129/2/4 130/2/4 131/2/4
f 131/2/4 130/2/4 132/2/4
f 133/2/4 134/2/4 135/2/4
f 135/2/4 134/2/4 136/2/4
f 153/2/5 138/2/5 137/2/5
f 154/2/5 138/2/5 153/2/5
f 155/2/5 153/2/5 137/2/5
f 155/1/5 154/1/5 153/1/5
f 156/2/5 138/2/5 154/2/5
f 156/1/5 154/1/5 155/1/5
f 157/2/5 156/2/5 155/2/5
f 157/2/5 138/2/5 156/2/5
f 158/1/5 139/1/5 138/1/5
f 158/2/5 138/2/5 157/2/5
f 159/2/5 140/2/5 139/2/5
f 159/1/5 139/1/5 158/1/5
f 160/1/5 141/1/5 140/1/5
f 160/2/5 140/2/5 159/2/5
f 161/2/5 142/2/5 141/2/5
f 161/1/5 141/1/5 160/1/5
f 162/1/5 143/1/5 142/1/5
f 162/2/5 142/2/5 161/2/5
f 163/2/5 144/2/5 143/2/5
f 163/1/5 143/1/5 162/1/5
f 164/1/5 145/1/5 144/1/5
f 164/2/5 144/2/5 163/2/5
f 165/2/5 146/2/5 145/2/5
f 165/1/5 145/1/5 164/1/5
f 166/1/5 147/1/5 146/1/5
f 166/2/5 146/2/5 165/2/5
f 167/2/5 148/2/5 147/2/5
f 167/1/5 147/1/5 166/1/5
f 168/1/5 149/1/5 148/1/5
f 168/2/5 148/2/5 167/2/5
f 169/2/5 150/2/5 149/2/5
f 169/1/5 149/1/5 168/1/5
f 170/1/5 151/1/5 150/1/5
f 170/2/5 150/2/5 169/2/5
f 171/2/5 152/2/5 151/2/5
f 171/1/5 151/1/5 170/1/5
f 172/2/5 152/2/5 171/2/5
f 173/2/5 157/2/5 155/2/5
f 173/2/5 155/2/5 137/2/5
f 174/2/5 157/2/5 173/2/5
f 175/1/5 174/1/5 173/1/5
f 176/1/5 174/1/5 175/1/5
f 177/2/5 176/2/5 175/2/5
f 178/2/5 176/2/5 177/2/5
f 179/1/5 178/1/5 177/1/5
f 180/1/5 178/1/5 179/1/5
f 181/2/5 180/2/5 179/2/5
f 182/2/5 180/2/5 181/2/5
f 183/1/5 182/1/5 181/1/5
f 184/1/5 182/1/5 183/1/5
f 185/2/5 184/2/5 183/2/5
f 186/2/5 184/2/5 185/2/5
f 187/1/5 186/1/5 185/1/5
f 188/1/5 186/1/5 187/1/5
f 189/2/5 188/2/5 187/2/5
f 190/2/5 188/2/5 189/2/5
f 191/1/5 190/1/5 189/1/5
f 192/1/5 190/1/5 191/1/5
f 193/2/5 192/2/5 191/2/5
f 194/2/5 192/2/5 193/2/5
f 195/1/5 194/1/5 193/1/5
f 196/1/5 194/1/5 195/1/5
f 197/2/5 196/2/5 195/2/5
f 198/2/5 196/2/5 197/2/5
f 199/1/5 198/1/5 197/1/5
f 200/1/5 198/1/5 199/1/5
f 201/2/5 200/2/5 199/2/5
f 202/2/5 200/2/5 201/2/5
f 203/2/6 204/2/6 219/2/6
f 219/2/6 204/2/6 220/2/6
f 203/2/6 219/2/6 221/2/6
f 219/1/6 220/1/6 221/1/6
f 220/2/6 204/2/6 222/2/6
f 221/1/6 220/1/6 222/1/6
f 221/2/6 222/2/6 223/2/6
f 222/2/6 204/2/6 223/2/6
f 204/1/6 205/1/6 224/1/6
f 223/2/6 204/2/6 224/2/6
f 205/2/6 206/2/6 225/2/6
f 224/1/6 205/1/6 225/1/6
f 206/1/6 207/1/6 226/1/6
f 225/2/6 206/2/6 226/2/6
f 207/2/6 208/2/6 227/2/6
f 226/1/6 207/1/6 227/1/6
f 208/1/6 209/1/6 228/1/6
f 227/2/6 208/2/6 228/2/6
f 209/2/6 210/2/6 229/2/6
f 228/1/6 209/1/6 229/1/6
f 210/1/6 211/1/6 230/1/6
f 229/2/6 210/2/6 230/2/6
f 211/2/6 212/2/6 231/2/6
f 230/1/6 211/1/6 231/1/6
f 212/1/6 213/1/6 232/1/6
f 231/2/6 212/2/6 232/2/6
f 213/2/6 214/2/6 233/2/6
f 232/1/6 213/1/6 233/1/6
f 214/1/6 215/1/6 234/1/6
f 233/2/6 214/2/6 234/2/6
f 215/2/6 216/2/6 235/2/6
f 234/1/6 215/1/6 235/1/6
f 216/1/6 217/1/6 236/1/6
f 235/2/6 216/2/6 236/2/6
f 217/2/6 218/2/6 237/2/6
f 236/1/6 217/1/6 237/1/6
f 237/2/6 218/2/6 238/2/6
f 221/2/6 223/2/6 239/2/6
f 203/2/6 221/2/6 239/2/6
f 239/2/6 223/2/6 240/2/6
f 239/1/6 240/1/6 241/1/6
f 241/1/6 240/1/6 242/1/6
f 241/2/6 242/2/6 243/2/6
f 243/2/6 242/2/6 244/2/6
f 243/1/6 244/1/6 245/1/6
f 245/1/6 244/1/6 246/1/6
f 245/2/6 246/2/6 247/2/6
f 247/2/6 246/2/6 248/2/6
f 247/1/6 248/1/6 249/1/6
f 249/1/6 248/1/6 250/1/6
f 249/2/6 250/2/6 251/2/6
f 251/2/6 250/2/6 252/2/6
f 251/1/6 252/1/6 253/1/6
f 253/1/6 252/1/6 254/1/6
f 253/2/6 254/2/6 255/2/6
f 255/2/6 254/2/6 256/2/6
f 255/1/6 256/1/6 257/1/6
f 257/1/6 256/1/6 258/1/6
f 257/2/6 258/2/6 259/2/6
f 259/2/6 258/2/6 260/2/6
f 259/1/6 260/1/6 261/1/6
f 261/1/6 260/1/6 262/1/6
f 261/2/6 262/2/6 263/2/6
f 263/2/6 262/2/6 264/2/6
f 263/1/6 264/1/6 265/1/6
f 265/1/6 264/1/6 266/1/6
f 265/2/6 266/2/6 267/2/6
f 267/2/6 266/2/6 268/2/6
