# MagicaVoxel @ Ephtracy

# group
o 

# material
mtllib prebuildarea_2.mtl
usemtl palette

# normals
vn -1 0 0
vn 1 0 0
vn 0 0 1
vn 0 0 -1
vn 0 -1 0
vn 0 1 0

# texcoords
vt 0.162109 0.5
vt 0.990234 0.5

# verts
v -1.6 0 1.6
v -1.6 0 1.2
v -1.6 0.1 1.6
v -1.6 0.1 1.2
v 1.6 0 1.6
v 1.6 0 1.2
v 1.6 0.1 1.6
v 1.6 0.1 1.2
v -1.6 0 1.6
v -1.6 0.1 1.6
v -1.5 0 1.6
v -1.5 0.1 1.6
v -1.3 0 1.6
v -1.3 0.1 1.6
v -1.1 0 1.6
v -1.1 0.1 1.6
v -0.9 0 1.6
v -0.9 0.1 1.6
v -0.7 0 1.6
v -0.7 0.1 1.6
v -0.5 0 1.6
v -0.5 0.1 1.6
v -0.3 0 1.6
v -0.3 0.1 1.6
v -0.1 0 1.6
v -0.1 0.1 1.6
v 0.1 0 1.6
v 0.1 0.1 1.6
v 0.3 0 1.6
v 0.3 0.1 1.6
v 0.5 0 1.6
v 0.5 0.1 1.6
v 0.7 0 1.6
v 0.7 0.1 1.6
v 0.9 0 1.6
v 0.9 0.1 1.6
v 1.1 0 1.6
v 1.1 0.1 1.6
v 1.3 0 1.6
v 1.3 0.1 1.6
v 1.5 0 1.6
v 1.5 0.1 1.6
v 1.6 0 1.6
v 1.6 0.1 1.6
v -1.6 0 1.2
v -1.6 0.1 1.2
v -1.5 0 1.2
v -1.5 0.1 1.2
v -1.3 0 1.2
v -1.3 0.1 1.2
v -1.1 0 1.2
v -1.1 0.1 1.2
v -0.9 0 1.2
v -0.9 0.1 1.2
v -0.7 0 1.2
v -0.7 0.1 1.2
v -0.5 0 1.2
v -0.5 0.1 1.2
v -0.3 0 1.2
v -0.3 0.1 1.2
v -0.1 0 1.2
v -0.1 0.1 1.2
v 0.1 0 1.2
v 0.1 0.1 1.2
v 0.3 0 1.2
v 0.3 0.1 1.2
v 0.5 0 1.2
v 0.5 0.1 1.2
v 0.7 0 1.2
v 0.7 0.1 1.2
v 0.9 0 1.2
v 0.9 0.1 1.2
v 1.1 0 1.2
v 1.1 0.1 1.2
v 1.3 0 1.2
v 1.3 0.1 1.2
v 1.5 0 1.2
v 1.5 0.1 1.2
v 1.6 0 1.2
v 1.6 0.1 1.2
v -1.6 0 1.6
v -1.5 0 1.6
v -1.3 0 1.6
v -1.1 0 1.6
v -0.9 0 1.6
v -0.7 0 1.6
v -0.5 0 1.6
v -0.3 0 1.6
v -0.1 0 1.6
v 0.1 0 1.6
v 0.3 0 1.6
v 0.5 0 1.6
v 0.7 0 1.6
v 0.9 0 1.6
v 1.1 0 1.6
v 1.3 0 1.6
v 1.5 0 1.6
v 1.6 0 1.6
v -1.6 0 1.2
v -1.5 0 1.2
v -1.3 0 1.2
v -1.1 0 1.2
v -0.9 0 1.2
v -0.7 0 1.2
v -0.5 0 1.2
v -0.3 0 1.2
v -0.1 0 1.2
v 0.1 0 1.2
v 0.3 0 1.2
v 0.5 0 1.2
v 0.7 0 1.2
v 0.9 0 1.2
v 1.1 0 1.2
v 1.3 0 1.2
v 1.5 0 1.2
v 1.6 0 1.2
v -1.6 0.1 1.6
v -1.5 0.1 1.6
v -1.3 0.1 1.6
v -1.1 0.1 1.6
v -0.9 0.1 1.6
v -0.7 0.1 1.6
v -0.5 0.1 1.6
v -0.3 0.1 1.6
v -0.1 0.1 1.6
v 0.1 0.1 1.6
v 0.3 0.1 1.6
v 0.5 0.1 1.6
v 0.7 0.1 1.6
v 0.9 0.1 1.6
v 1.1 0.1 1.6
v 1.3 0.1 1.6
v 1.5 0.1 1.6
v 1.6 0.1 1.6
v -1.6 0.1 1.2
v -1.5 0.1 1.2
v -1.3 0.1 1.2
v -1.1 0.1 1.2
v -0.9 0.1 1.2
v -0.7 0.1 1.2
v -0.5 0.1 1.2
v -0.3 0.1 1.2
v -0.1 0.1 1.2
v 0.1 0.1 1.2
v 0.3 0.1 1.2
v 0.5 0.1 1.2
v 0.7 0.1 1.2
v 0.9 0.1 1.2
v 1.1 0.1 1.2
v 1.3 0.1 1.2
v 1.5 0.1 1.2
v 1.6 0.1 1.2

# faces
f 3/2/1 2/2/1 1/2/1
f 4/2/1 2/2/1 3/2/1
f 5/2/2 6/2/2 7/2/2
f 7/2/2 6/2/2 8/2/2
f 11/2/3 10/2/3 9/2/3
f 12/2/3 10/2/3 11/2/3
f 13/1/3 12/1/3 11/1/3
f 14/1/3 12/1/3 13/1/3
f 15/2/3 14/2/3 13/2/3
f 16/2/3 14/2/3 15/2/3
f 17/1/3 16/1/3 15/1/3
f 18/1/3 16/1/3 17/1/3
f 19/2/3 18/2/3 17/2/3
f 20/2/3 18/2/3 19/2/3
f 21/1/3 20/1/3 19/1/3
f 22/1/3 20/1/3 21/1/3
f 23/2/3 22/2/3 21/2/3
f 24/2/3 22/2/3 23/2/3
f 25/1/3 24/1/3 23/1/3
f 26/1/3 24/1/3 25/1/3
f 27/2/3 26/2/3 25/2/3
f 28/2/3 26/2/3 27/2/3
f 29/1/3 28/1/3 27/1/3
f 30/1/3 28/1/3 29/1/3
f 31/2/3 30/2/3 29/2/3
f 32/2/3 30/2/3 31/2/3
f 33/1/3 32/1/3 31/1/3
f 34/1/3 32/1/3 33/1/3
f 35/2/3 34/2/3 33/2/3
f 36/2/3 34/2/3 35/2/3
f 37/1/3 36/1/3 35/1/3
f 38/1/3 36/1/3 37/1/3
f 39/2/3 38/2/3 37/2/3
f 40/2/3 38/2/3 39/2/3
f 41/1/3 40/1/3 39/1/3
f 42/1/3 40/1/3 41/1/3
f 43/2/3 42/2/3 41/2/3
f 44/2/3 42/2/3 43/2/3
f 45/2/4 46/2/4 47/2/4
f 47/2/4 46/2/4 48/2/4
f 47/1/4 48/1/4 49/1/4
f 49/1/4 48/1/4 50/1/4
f 49/2/4 50/2/4 51/2/4
f 51/2/4 50/2/4 52/2/4
f 51/1/4 52/1/4 53/1/4
f 53/1/4 52/1/4 54/1/4
f 53/2/4 54/2/4 55/2/4
f 55/2/4 54/2/4 56/2/4
f 55/1/4 56/1/4 57/1/4
f 57/1/4 56/1/4 58/1/4
f 57/2/4 58/2/4 59/2/4
f 59/2/4 58/2/4 60/2/4
f 59/1/4 60/1/4 61/1/4
f 61/1/4 60/1/4 62/1/4
f 61/2/4 62/2/4 63/2/4
f 63/2/4 62/2/4 64/2/4
f 63/1/4 64/1/4 65/1/4
f 65/1/4 64/1/4 66/1/4
f 65/2/4 66/2/4 67/2/4
f 67/2/4 66/2/4 68/2/4
f 67/1/4 68/1/4 69/1/4
f 69/1/4 68/1/4 70/1/4
f 69/2/4 70/2/4 71/2/4
f 71/2/4 70/2/4 72/2/4
f 71/1/4 72/1/4 73/1/4
f 73/1/4 72/1/4 74/1/4
f 73/2/4 74/2/4 75/2/4
f 75/2/4 74/2/4 76/2/4
f 75/1/4 76/1/4 77/1/4
f 77/1/4 76/1/4 78/1/4
f 77/2/4 78/2/4 79/2/4
f 79/2/4 78/2/4 80/2/4
f 99/2/5 82/2/5 81/2/5
f 100/1/5 83/1/5 82/1/5
f 100/2/5 82/2/5 99/2/5
f 101/2/5 84/2/5 83/2/5
f 101/1/5 83/1/5 100/1/5
f 102/1/5 85/1/5 84/1/5
f 102/2/5 84/2/5 101/2/5
f 103/2/5 86/2/5 85/2/5
f 103/1/5 85/1/5 102/1/5
f 104/1/5 87/1/5 86/1/5
f 104/2/5 86/2/5 103/2/5
f 105/2/5 88/2/5 87/2/5
f 105/1/5 87/1/5 104/1/5
f 106/1/5 89/1/5 88/1/5
f 106/2/5 88/2/5 105/2/5
f 107/2/5 90/2/5 89/2/5
f 107/1/5 89/1/5 106/1/5
f 108/1/5 91/1/5 90/1/5
f 108/2/5 90/2/5 107/2/5
f 109/2/5 92/2/5 91/2/5
f 109/1/5 91/1/5 108/1/5
f 110/1/5 93/1/5 92/1/5
f 110/2/5 92/2/5 109/2/5
f 111/2/5 94/2/5 93/2/5
f 111/1/5 93/1/5 110/1/5
f 112/1/5 95/1/5 94/1/5
f 112/2/5 94/2/5 111/2/5
f 113/2/5 96/2/5 95/2/5
f 113/1/5 95/1/5 112/1/5
f 114/1/5 97/1/5 96/1/5
f 114/2/5 96/2/5 113/2/5
f 115/2/5 98/2/5 97/2/5
f 115/1/5 97/1/5 114/1/5
f 116/2/5 98/2/5 115/2/5
f 117/2/6 118/2/6 135/2/6
f 118/1/6 119/1/6 136/1/6
f 135/2/6 118/2/6 136/2/6
f 119/2/6 120/2/6 137/2/6
f 136/1/6 119/1/6 137/1/6
f 120/1/6 121/1/6 138/1/6
f 137/2/6 120/2/6 138/2/6
f 121/2/6 122/2/6 139/2/6
f 138/1/6 121/1/6 139/1/6
f 122/1/6 123/1/6 140/1/6
f 139/2/6 122/2/6 140/2/6
f 123/2/6 124/2/6 141/2/6
f 140/1/6 123/1/6 141/1/6
f 124/1/6 125/1/6 142/1/6
f 141/2/6 124/2/6 142/2/6
f 125/2/6 126/2/6 143/2/6
f 142/1/6 125/1/6 143/1/6
f 126/1/6 127/1/6 144/1/6
f 143/2/6 126/2/6 144/2/6
f 127/2/6 128/2/6 145/2/6
f 144/1/6 127/1/6 145/1/6
f 128/1/6 129/1/6 146/1/6
f 145/2/6 128/2/6 146/2/6
f 129/2/6 130/2/6 147/2/6
f 146/1/6 129/1/6 147/1/6
f 130/1/6 131/1/6 148/1/6
f 147/2/6 130/2/6 148/2/6
f 131/2/6 132/2/6 149/2/6
f 148/1/6 131/1/6 149/1/6
f 132/1/6 133/1/6 150/1/6
f 149/2/6 132/2/6 150/2/6
f 133/2/6 134/2/6 151/2/6
f 150/1/6 133/1/6 151/1/6
f 151/2/6 134/2/6 152/2/6
