# MagicaVoxel @ Ephtracy

# group
o 

# material
mtllib workshop_3dprinters.mtl
usemtl palette

# normals
vn -1 0 0
vn 1 0 0
vn 0 0 1
vn 0 0 -1
vn 0 -1 0
vn 0 1 0

# texcoords
vt 0.591797 0.5
vt 0.857422 0.5
vt 0.861328 0.5
vt 0.865234 0.5
vt 0.990234 0.5

# verts
v -1.5 0.7 1.6
v -1.5 0.7 0.5
v -1.5 0.8 1.6
v -1.5 0.8 0.5
v -1.4 0 1.5
v -1.4 0 0.6
v -1.4 0.2 1.3
v -1.4 0.2 1.1
v -1.4 0.2 1
v -1.4 0.2 0.8
v -1.4 0.6 1.3
v -1.4 0.6 1.1
v -1.4 0.6 1
v -1.4 0.6 0.8
v -1.4 0.7 1.5
v -1.4 0.7 0.6
v -1.4 0.8 1.5
v -1.4 0.8 0.6
v -1.4 0.9 1.5
v -1.4 0.9 0.6
v -1.3 0 0.1
v -1.3 0 -0.9
v -1.3 0.2 1.3
v -1.3 0.2 1.1
v -1.3 0.2 1
v -1.3 0.2 0.8
v -1.3 0.2 -0.1
v -1.3 0.2 -0.3
v -1.3 0.2 -0.5
v -1.3 0.2 -0.7
v -1.3 0.6 1.3
v -1.3 0.6 1.1
v -1.3 0.6 1
v -1.3 0.6 0.8
v -1.3 0.6 -0.1
v -1.3 0.6 -0.3
v -1.3 0.6 -0.5
v -1.3 0.6 -0.7
v -1.3 0.7 0.1
v -1.3 0.7 -0.9
v -1.3 0.8 0.1
v -1.3 0.8 -0.9
v -1.2 0.2 -0.1
v -1.2 0.2 -0.3
v -1.2 0.2 -0.5
v -1.2 0.2 -0.7
v -1.2 0.6 -0.1
v -1.2 0.6 -0.3
v -1.2 0.6 -0.5
v -1.2 0.6 -0.7
v -1.2 0.9 1.3
v -1.2 0.9 0.8
v -1.2 1 1.3
v -1.2 1 0.8
v -1.1 1 1.2
v -1.1 1 0.9
v -1.1 1.1 1.2
v -1.1 1.1 0.9
v -1 0.2 0.7
v -1 0.2 0.6
v -1 0.6 0.7
v -1 0.6 0.6
v -1 1.1 1.1
v -1 1.1 1
v -1 1.2 1.1
v -1 1.2 1
v -0.9 0.2 -0.8
v -0.9 0.2 -0.9
v -0.9 0.6 -0.8
v -0.9 0.6 -0.9
v -0.6 0.2 0.7
v -0.6 0.2 0.6
v -0.6 0.6 0.7
v -0.6 0.6 0.6
v -0.5 0.2 -0.8
v -0.5 0.2 -0.9
v -0.5 0.6 -0.8
v -0.5 0.6 -0.9
v -0.4 0.7 0
v -0.4 0.7 -0.8
v -0.4 0.8 0
v -0.4 0.8 -0.8
v -0.2 0.2 0.7
v -0.2 0.2 0.6
v -0.2 0.6 0.7
v -0.2 0.6 0.6
v 0.2 0.2 0.7
v 0.2 0.2 0.6
v 0.2 0.6 0.7
v 0.2 0.6 0.6
v 0.3 0 0.3
v 0.3 0 -1.5
v 0.3 0.5 0.1
v 0.3 0.5 -0.3
v 0.3 0.5 -0.4
v 0.3 0.5 -0.8
v 0.3 0.5 -0.9
v 0.3 0.5 -1.3
v 0.3 0.7 0.1
v 0.3 0.7 -0.3
v 0.3 0.7 -0.4
v 0.3 0.7 -0.8
v 0.3 0.7 -0.9
v 0.3 0.7 -1.3
v 0.3 0.9 0.1
v 0.3 0.9 -0.3
v 0.3 0.9 -0.4
v 0.3 0.9 -0.8
v 0.3 0.9 -0.9
v 0.3 0.9 -1.3
v 0.3 1.1 0.1
v 0.3 1.1 -0.3
v 0.3 1.1 -0.4
v 0.3 1.1 -0.8
v 0.3 1.1 -0.9
v 0.3 1.1 -1.3
v 0.3 1.3 0.3
v 0.3 1.3 -1.5
v 0.4 0.5 0.1
v 0.4 0.5 -0.3
v 0.4 0.5 -0.4
v 0.4 0.5 -0.8
v 0.4 0.5 -0.9
v 0.4 0.5 -1.3
v 0.4 0.7 0.1
v 0.4 0.7 -0.3
v 0.4 0.7 -0.4
v 0.4 0.7 -0.8
v 0.4 0.7 -0.9
v 0.4 0.7 -1.3
v 0.4 0.9 0.1
v 0.4 0.9 -0.3
v 0.4 0.9 -0.4
v 0.4 0.9 -0.8
v 0.4 0.9 -0.9
v 0.4 0.9 -1.3
v 0.4 1.1 0.1
v 0.4 1.1 -0.3
v 0.4 1.1 -0.4
v 0.4 1.1 -0.8
v 0.4 1.1 -0.9
v 0.4 1.1 -1.3
v 0.8 0.5 -1.4
v 0.8 0.5 -1.5
v 0.8 0.7 -1.4
v 0.8 0.7 -1.5
v 0.8 0.9 -1.4
v 0.8 0.9 -1.5
v 0.8 1.1 -1.4
v 0.8 1.1 -1.5
v 1.3 0.5 -1.4
v 1.3 0.5 -1.5
v 1.3 0.7 -1.4
v 1.3 0.7 -1.5
v 1.3 0.9 -1.4
v 1.3 0.9 -1.5
v 1.3 1.1 -1.4
v 1.3 1.1 -1.5
v 1.4 1.2 0.2
v 1.4 1.2 -1.4
v 1.4 1.3 0.2
v 1.4 1.3 -1.4
v -1.2 0.2 0.7
v -1.2 0.2 0.6
v -1.2 0.6 0.7
v -1.2 0.6 0.6
v -1.2 0.7 0
v -1.2 0.7 -0.8
v -1.2 0.8 0
v -1.2 0.8 -0.8
v -1.1 0.2 -0.8
v -1.1 0.2 -0.9
v -1.1 0.6 -0.8
v -1.1 0.6 -0.9
v -0.8 0.2 0.7
v -0.8 0.2 0.6
v -0.8 0.6 0.7
v -0.8 0.6 0.6
v -0.7 0.2 -0.8
v -0.7 0.2 -0.9
v -0.7 0.6 -0.8
v -0.7 0.6 -0.9
v -0.4 0.2 0.7
v -0.4 0.2 0.6
v -0.4 0.6 0.7
v -0.4 0.6 0.6
v -0.3 0 0.1
v -0.3 0 -0.9
v -0.3 0.7 0.1
v -0.3 0.7 -0.9
v -0.3 0.8 0.1
v -0.3 0.8 -0.9
v 0 0.2 0.7
v 0 0.2 0.6
v 0 0.6 0.7
v 0 0.6 0.6
v 0.2 1.1 1.1
v 0.2 1.1 1
v 0.2 1.2 1.1
v 0.2 1.2 1
v 0.3 1 1.2
v 0.3 1 0.9
v 0.3 1.1 1.2
v 0.3 1.1 0.9
v 0.4 0.9 1.3
v 0.4 0.9 0.8
v 0.4 1 1.3
v 0.4 1 0.8
v 0.4 1.2 0.2
v 0.4 1.2 -1.4
v 0.4 1.3 0.2
v 0.4 1.3 -1.4
v 0.5 0.5 -1.4
v 0.5 0.5 -1.5
v 0.5 0.7 -1.4
v 0.5 0.7 -1.5
v 0.5 0.9 -1.4
v 0.5 0.9 -1.5
v 0.5 1.1 -1.4
v 0.5 1.1 -1.5
v 0.6 0 1.5
v 0.6 0 0.6
v 0.6 0.7 1.5
v 0.6 0.7 0.6
v 0.6 0.8 1.5
v 0.6 0.8 0.6
v 0.6 0.9 1.5
v 0.6 0.9 0.6
v 0.7 0.7 1.6
v 0.7 0.7 0.5
v 0.7 0.8 1.6
v 0.7 0.8 0.5
v 1 0.5 -1.4
v 1 0.5 -1.5
v 1 0.7 -1.4
v 1 0.7 -1.5
v 1 0.9 -1.4
v 1 0.9 -1.5
v 1 1.1 -1.4
v 1 1.1 -1.5
v 1.5 0 0.3
v 1.5 0 -1.5
v 1.5 1.3 0.3
v 1.5 1.3 -1.5
v -1.5 0.7 1.6
v -1.5 0.8 1.6
v 0.7 0.7 1.6
v 0.7 0.8 1.6
v -1.4 0 1.5
v -1.4 0.7 1.5
v -1.4 0.8 1.5
v -1.4 0.9 1.5
v 0.6 0 1.5
v 0.6 0.7 1.5
v 0.6 0.8 1.5
v 0.6 0.9 1.5
v -1.2 0.9 1.3
v -1.2 1 1.3
v 0.4 0.9 1.3
v 0.4 1 1.3
v -1.1 1 1.2
v -1.1 1.1 1.2
v 0.3 1 1.2
v 0.3 1.1 1.2
v -1.4 0.2 1.1
v -1.4 0.6 1.1
v -1.3 0.2 1.1
v -1.3 0.6 1.1
v -1 1.1 1.1
v -1 1.2 1.1
v 0.2 1.1 1.1
v 0.2 1.2 1.1
v -1.4 0.2 0.8
v -1.4 0.6 0.8
v -1.3 0.2 0.8
v -1.3 0.6 0.8
v 0.3 0 0.3
v 0.3 1.3 0.3
v 1.5 0 0.3
v 1.5 1.3 0.3
v -1.3 0 0.1
v -1.3 0.7 0.1
v -1.3 0.8 0.1
v -0.3 0 0.1
v -0.3 0.7 0.1
v -0.3 0.8 0.1
v -1.3 0.2 -0.3
v -1.3 0.6 -0.3
v -1.2 0.2 -0.3
v -1.2 0.6 -0.3
v 0.3 0.5 -0.3
v 0.3 0.7 -0.3
v 0.3 0.9 -0.3
v 0.3 1.1 -0.3
v 0.4 0.5 -0.3
v 0.4 0.7 -0.3
v 0.4 0.9 -0.3
v 0.4 1.1 -0.3
v -1.3 0.2 -0.7
v -1.3 0.6 -0.7
v -1.2 0.2 -0.7
v -1.2 0.6 -0.7
v -1.2 0.7 -0.8
v -1.2 0.8 -0.8
v -0.4 0.7 -0.8
v -0.4 0.8 -0.8
v 0.3 0.5 -0.8
v 0.3 0.7 -0.8
v 0.3 0.9 -0.8
v 0.3 1.1 -0.8
v 0.4 0.5 -0.8
v 0.4 0.7 -0.8
v 0.4 0.9 -0.8
v 0.4 1.1 -0.8
v 0.3 0.5 -1.3
v 0.3 0.7 -1.3
v 0.3 0.9 -1.3
v 0.3 1.1 -1.3
v 0.4 0.5 -1.3
v 0.4 0.7 -1.3
v 0.4 0.9 -1.3
v 0.4 1.1 -1.3
v 0.4 1.2 -1.4
v 0.4 1.3 -1.4
v 1.4 1.2 -1.4
v 1.4 1.3 -1.4
v -1.4 0.2 1.3
v -1.4 0.6 1.3
v -1.3 0.2 1.3
v -1.3 0.6 1.3
v -1.4 0.2 1
v -1.4 0.6 1
v -1.3 0.2 1
v -1.3 0.6 1
v -1 1.1 1
v -1 1.2 1
v 0.2 1.1 1
v 0.2 1.2 1
v -1.1 1 0.9
v -1.1 1.1 0.9
v 0.3 1 0.9
v 0.3 1.1 0.9
v -1.2 0.9 0.8
v -1.2 1 0.8
v 0.4 0.9 0.8
v 0.4 1 0.8
v -1.2 0.2 0.7
v -1.2 0.6 0.7
v -1 0.2 0.7
v -1 0.6 0.7
v -0.8 0.2 0.7
v -0.8 0.6 0.7
v -0.6 0.2 0.7
v -0.6 0.6 0.7
v -0.4 0.2 0.7
v -0.4 0.6 0.7
v -0.2 0.2 0.7
v -0.2 0.6 0.7
v 0 0.2 0.7
v 0 0.6 0.7
v 0.2 0.2 0.7
v 0.2 0.6 0.7
v -1.4 0 0.6
v -1.4 0.7 0.6
v -1.4 0.8 0.6
v -1.4 0.9 0.6
v -1.2 0.2 0.6
v -1.2 0.6 0.6
v -1 0.2 0.6
v -1 0.6 0.6
v -0.8 0.2 0.6
v -0.8 0.6 0.6
v -0.6 0.2 0.6
v -0.6 0.6 0.6
v -0.4 0.2 0.6
v -0.4 0.6 0.6
v -0.2 0.2 0.6
v -0.2 0.6 0.6
v 0 0.2 0.6
v 0 0.6 0.6
v 0.2 0.2 0.6
v 0.2 0.6 0.6
v 0.6 0 0.6
v 0.6 0.7 0.6
v 0.6 0.8 0.6
v 0.6 0.9 0.6
v -1.5 0.7 0.5
v -1.5 0.8 0.5
v 0.7 0.7 0.5
v 0.7 0.8 0.5
v 0.4 1.2 0.2
v 0.4 1.3 0.2
v 1.4 1.2 0.2
v 1.4 1.3 0.2
v 0.3 0.5 0.1
v 0.3 0.7 0.1
v 0.3 0.9 0.1
v 0.3 1.1 0.1
v 0.4 0.5 0.1
v 0.4 0.7 0.1
v 0.4 0.9 0.1
v 0.4 1.1 0.1
v -1.2 0.7 0
v -1.2 0.8 0
v -0.4 0.7 0
v -0.4 0.8 0
v -1.3 0.2 -0.1
v -1.3 0.6 -0.1
v -1.2 0.2 -0.1
v -1.2 0.6 -0.1
v 0.3 0.5 -0.4
v 0.3 0.7 -0.4
v 0.3 0.9 -0.4
v 0.3 1.1 -0.4
v 0.4 0.5 -0.4
v 0.4 0.7 -0.4
v 0.4 0.9 -0.4
v 0.4 1.1 -0.4
v -1.3 0.2 -0.5
v -1.3 0.6 -0.5
v -1.2 0.2 -0.5
v -1.2 0.6 -0.5
v -1.1 0.2 -0.8
v -1.1 0.6 -0.8
v -0.9 0.2 -0.8
v -0.9 0.6 -0.8
v -0.7 0.2 -0.8
v -0.7 0.6 -0.8
v -0.5 0.2 -0.8
v -0.5 0.6 -0.8
v -1.3 0 -0.9
v -1.3 0.7 -0.9
v -1.3 0.8 -0.9
v -1.1 0.2 -0.9
v -1.1 0.6 -0.9
v -0.9 0.2 -0.9
v -0.9 0.6 -0.9
v -0.7 0.2 -0.9
v -0.7 0.6 -0.9
v -0.5 0.2 -0.9
v -0.5 0.6 -0.9
v -0.3 0 -0.9
v -0.3 0.7 -0.9
v -0.3 0.8 -0.9
v 0.3 0.5 -0.9
v 0.3 0.7 -0.9
v 0.3 0.9 -0.9
v 0.3 1.1 -0.9
v 0.4 0.5 -0.9
v 0.4 0.7 -0.9
v 0.4 0.9 -0.9
v 0.4 1.1 -0.9
v 0.5 0.5 -1.4
v 0.5 0.7 -1.4
v 0.5 0.9 -1.4
v 0.5 1.1 -1.4
v 0.8 0.5 -1.4
v 0.8 0.7 -1.4
v 0.8 0.9 -1.4
v 0.8 1.1 -1.4
v 1 0.5 -1.4
v 1 0.7 -1.4
v 1 0.9 -1.4
v 1 1.1 -1.4
v 1.3 0.5 -1.4
v 1.3 0.7 -1.4
v 1.3 0.9 -1.4
v 1.3 1.1 -1.4
v 0.3 0 -1.5
v 0.3 1.3 -1.5
v 0.5 0.5 -1.5
v 0.5 0.7 -1.5
v 0.5 0.9 -1.5
v 0.5 1.1 -1.5
v 0.8 0.5 -1.5
v 0.8 0.7 -1.5
v 0.8 0.9 -1.5
v 0.8 1.1 -1.5
v 1 0.5 -1.5
v 1 0.7 -1.5
v 1 0.9 -1.5
v 1 1.1 -1.5
v 1.3 0.5 -1.5
v 1.3 0.7 -1.5
v 1.3 0.9 -1.5
v 1.3 1.1 -1.5
v 1.5 0 -1.5
v 1.5 1.3 -1.5
v -1.4 0 1.5
v 0.6 0 1.5
v -1.4 0 0.6
v 0.6 0 0.6
v 0.3 0 0.3
v 1.5 0 0.3
v -1.3 0 0.1
v -0.3 0 0.1
v -1.3 0 -0.9
v -0.3 0 -0.9
v 0.3 0 -1.5
v 1.5 0 -1.5
v -1.4 0.6 1.3
v -1.3 0.6 1.3
v -1.4 0.6 1.1
v -1.3 0.6 1.1
v -1.4 0.6 1
v -1.3 0.6 1
v -1.4 0.6 0.8
v -1.3 0.6 0.8
v -1.2 0.6 0.7
v -1 0.6 0.7
v -0.8 0.6 0.7
v -0.6 0.6 0.7
v -0.4 0.6 0.7
v -0.2 0.6 0.7
v 0 0.6 0.7
v 0.2 0.6 0.7
v -1.2 0.6 0.6
v -1 0.6 0.6
v -0.8 0.6 0.6
v -0.6 0.6 0.6
v -0.4 0.6 0.6
v -0.2 0.6 0.6
v 0 0.6 0.6
v 0.2 0.6 0.6
v -1.3 0.6 -0.1
v -1.2 0.6 -0.1
v -1.3 0.6 -0.3
v -1.2 0.6 -0.3
v -1.3 0.6 -0.5
v -1.2 0.6 -0.5
v -1.3 0.6 -0.7
v -1.2 0.6 -0.7
v -1.1 0.6 -0.8
v -0.9 0.6 -0.8
v -0.7 0.6 -0.8
v -0.5 0.6 -0.8
v -1.1 0.6 -0.9
v -0.9 0.6 -0.9
v -0.7 0.6 -0.9
v -0.5 0.6 -0.9
v -1.5 0.7 1.6
v 0.7 0.7 1.6
v -1.4 0.7 1.5
v 0.6 0.7 1.5
v -1.4 0.7 0.6
v 0.6 0.7 0.6
v -1.5 0.7 0.5
v 0.7 0.7 0.5
v 0.3 0.7 0.1
v 0.4 0.7 0.1
v 0.3 0.7 -0.3
v 0.4 0.7 -0.3
v 0.3 0.7 -0.4
v 0.4 0.7 -0.4
v 0.3 0.7 -0.8
v 0.4 0.7 -0.8
v 0.3 0.7 -0.9
v 0.4 0.7 -0.9
v 0.3 0.7 -1.3
v 0.4 0.7 -1.3
v 0.5 0.7 -1.4
v 0.8 0.7 -1.4
v 1 0.7 -1.4
v 1.3 0.7 -1.4
v 0.5 0.7 -1.5
v 0.8 0.7 -1.5
v 1 0.7 -1.5
v 1.3 0.7 -1.5
v 0.3 1.1 0.1
v 0.4 1.1 0.1
v 0.3 1.1 -0.3
v 0.4 1.1 -0.3
v 0.3 1.1 -0.4
v 0.4 1.1 -0.4
v 0.3 1.1 -0.8
v 0.4 1.1 -0.8
v 0.3 1.1 -0.9
v 0.4 1.1 -0.9
v 0.3 1.1 -1.3
v 0.4 1.1 -1.3
v 0.5 1.1 -1.4
v 0.8 1.1 -1.4
v 1 1.1 -1.4
v 1.3 1.1 -1.4
v 0.5 1.1 -1.5
v 0.8 1.1 -1.5
v 1 1.1 -1.5
v 1.3 1.1 -1.5
v -1.4 0.2 1.3
v -1.3 0.2 1.3
v -1.4 0.2 1.1
v -1.3 0.2 1.1
v -1.4 0.2 1
v -1.3 0.2 1
v -1.4 0.2 0.8
v -1.3 0.2 0.8
v -1.2 0.2 0.7
v -1 0.2 0.7
v -0.8 0.2 0.7
v -0.6 0.2 0.7
v -0.4 0.2 0.7
v -0.2 0.2 0.7
v 0 0.2 0.7
v 0.2 0.2 0.7
v -1.2 0.2 0.6
v -1 0.2 0.6
v -0.8 0.2 0.6
v -0.6 0.2 0.6
v -0.4 0.2 0.6
v -0.2 0.2 0.6
v 0 0.2 0.6
v 0.2 0.2 0.6
v -1.3 0.2 -0.1
v -1.2 0.2 -0.1
v -1.3 0.2 -0.3
v -1.2 0.2 -0.3
v -1.3 0.2 -0.5
v -1.2 0.2 -0.5
v -1.3 0.2 -0.7
v -1.2 0.2 -0.7
v -1.1 0.2 -0.8
v -0.9 0.2 -0.8
v -0.7 0.2 -0.8
v -0.5 0.2 -0.8
v -1.1 0.2 -0.9
v -0.9 0.2 -0.9
v -0.7 0.2 -0.9
v -0.5 0.2 -0.9
v 0.3 0.5 0.1
v 0.4 0.5 0.1
v 0.3 0.5 -0.3
v 0.4 0.5 -0.3
v 0.3 0.5 -0.4
v 0.4 0.5 -0.4
v 0.3 0.5 -0.8
v 0.4 0.5 -0.8
v 0.3 0.5 -0.9
v 0.4 0.5 -0.9
v 0.3 0.5 -1.3
v 0.4 0.5 -1.3
v 0.5 0.5 -1.4
v 0.8 0.5 -1.4
v 1 0.5 -1.4
v 1.3 0.5 -1.4
v 0.5 0.5 -1.5
v 0.8 0.5 -1.5
v 1 0.5 -1.5
v 1.3 0.5 -1.5
v -1.2 0.7 0
v -0.4 0.7 0
v -1.2 0.7 -0.8
v -0.4 0.7 -0.8
v -1.5 0.8 1.6
v 0.7 0.8 1.6
v -1.4 0.8 1.5
v 0.6 0.8 1.5
v -1.4 0.8 0.6
v 0.6 0.8 0.6
v -1.5 0.8 0.5
v 0.7 0.8 0.5
v -1.3 0.8 0.1
v -0.3 0.8 0.1
v -1.2 0.8 0
v -0.4 0.8 0
v -1.2 0.8 -0.8
v -0.4 0.8 -0.8
v -1.3 0.8 -0.9
v -0.3 0.8 -0.9
v -1.4 0.9 1.5
v 0.6 0.9 1.5
v -1.2 0.9 1.3
v 0.4 0.9 1.3
v -1.2 0.9 0.8
v 0.4 0.9 0.8
v -1.4 0.9 0.6
v 0.6 0.9 0.6
v 0.3 0.9 0.1
v 0.4 0.9 0.1
v 0.3 0.9 -0.3
v 0.4 0.9 -0.3
v 0.3 0.9 -0.4
v 0.4 0.9 -0.4
v 0.3 0.9 -0.8
v 0.4 0.9 -0.8
v 0.3 0.9 -0.9
v 0.4 0.9 -0.9
v 0.3 0.9 -1.3
v 0.4 0.9 -1.3
v 0.5 0.9 -1.4
v 0.8 0.9 -1.4
v 1 0.9 -1.4
v 1.3 0.9 -1.4
v 0.5 0.9 -1.5
v 0.8 0.9 -1.5
v 1 0.9 -1.5
v 1.3 0.9 -1.5
v -1.2 1 1.3
v 0.4 1 1.3
v -1.1 1 1.2
v 0.3 1 1.2
v -1.1 1 0.9
v 0.3 1 0.9
v -1.2 1 0.8
v 0.4 1 0.8
v -1.1 1.1 1.2
v 0.3 1.1 1.2
v -1 1.1 1.1
v 0.2 1.1 1.1
v -1 1.1 1
v 0.2 1.1 1
v -1.1 1.1 0.9
v 0.3 1.1 0.9
v -1 1.2 1.1
v 0.2 1.2 1.1
v -1 1.2 1
v 0.2 1.2 1
v 0.4 1.2 0.2
v 1.4 1.2 0.2
v 0.4 1.2 -1.4
v 1.4 1.2 -1.4
v 0.3 1.3 0.3
v 1.5 1.3 0.3
v 0.4 1.3 0.2
v 1.4 1.3 0.2
v 0.4 1.3 -1.4
v 1.4 1.3 -1.4
v 0.3 1.3 -1.5
v 1.5 1.3 -1.5

# faces
f 3/5/1 2/5/1 1/5/1
f 4/5/1 2/5/1 3/5/1
f 7/2/1 6/2/1 5/2/1
f 8/2/1 6/2/1 7/2/1
f 9/2/1 6/2/1 8/2/1
f 10/2/1 6/2/1 9/2/1
f 11/2/1 7/2/1 5/2/1
f 12/2/1 9/2/1 8/2/1
f 13/2/1 9/2/1 12/2/1
f 14/2/1 6/2/1 10/2/1
f 15/2/1 13/2/1 12/2/1
f 15/2/1 14/2/1 13/2/1
f 15/2/1 11/2/1 5/2/1
f 15/2/1 12/2/1 11/2/1
f 16/2/1 6/2/1 14/2/1
f 16/2/1 14/2/1 15/2/1
f 19/5/1 18/5/1 17/5/1
f 20/5/1 18/5/1 19/5/1
f 27/4/1 22/4/1 21/4/1
f 28/4/1 22/4/1 27/4/1
f 29/4/1 22/4/1 28/4/1
f 30/4/1 22/4/1 29/4/1
f 31/1/1 24/1/1 23/1/1
f 32/1/1 24/1/1 31/1/1
f 33/1/1 26/1/1 25/1/1
f 34/1/1 26/1/1 33/1/1
f 35/4/1 27/4/1 21/4/1
f 36/4/1 29/4/1 28/4/1
f 37/4/1 29/4/1 36/4/1
f 38/4/1 22/4/1 30/4/1
f 39/4/1 38/4/1 37/4/1
f 39/4/1 37/4/1 36/4/1
f 39/4/1 36/4/1 35/4/1
f 39/4/1 35/4/1 21/4/1
f 40/4/1 22/4/1 38/4/1
f 40/4/1 38/4/1 39/4/1
f 41/5/1 40/5/1 39/5/1
f 42/5/1 40/5/1 41/5/1
f 47/1/1 44/1/1 43/1/1
f 48/1/1 44/1/1 47/1/1
f 49/1/1 46/1/1 45/1/1
f 50/1/1 46/1/1 49/1/1
f 53/5/1 52/5/1 51/5/1
f 54/5/1 52/5/1 53/5/1
f 57/5/1 56/5/1 55/5/1
f 58/5/1 56/5/1 57/5/1
f 61/2/1 60/2/1 59/2/1
f 62/2/1 60/2/1 61/2/1
f 65/5/1 64/5/1 63/5/1
f 66/5/1 64/5/1 65/5/1
f 69/4/1 68/4/1 67/4/1
f 70/4/1 68/4/1 69/4/1
f 73/2/1 72/2/1 71/2/1
f 74/2/1 72/2/1 73/2/1
f 77/4/1 76/4/1 75/4/1
f 78/4/1 76/4/1 77/4/1
f 81/5/1 80/5/1 79/5/1
f 82/5/1 80/5/1 81/5/1
f 85/2/1 84/2/1 83/2/1
f 86/2/1 84/2/1 85/2/1
f 89/2/1 88/2/1 87/2/1
f 90/2/1 88/2/1 89/2/1
f 93/3/1 92/3/1 91/3/1
f 94/3/1 92/3/1 93/3/1
f 95/3/1 92/3/1 94/3/1
f 96/3/1 92/3/1 95/3/1
f 97/3/1 92/3/1 96/3/1
f 98/3/1 92/3/1 97/3/1
f 99/3/1 93/3/1 91/3/1
f 100/3/1 95/3/1 94/3/1
f 101/3/1 95/3/1 100/3/1
f 102/3/1 97/3/1 96/3/1
f 103/3/1 97/3/1 102/3/1
f 104/3/1 92/3/1 98/3/1
f 105/3/1 103/3/1 102/3/1
f 105/3/1 104/3/1 103/3/1
f 105/3/1 101/3/1 100/3/1
f 105/3/1 99/3/1 91/3/1
f 105/3/1 102/3/1 101/3/1
f 105/3/1 100/3/1 99/3/1
f 106/3/1 104/3/1 105/3/1
f 107/3/1 104/3/1 106/3/1
f 108/3/1 104/3/1 107/3/1
f 109/3/1 104/3/1 108/3/1
f 110/3/1 92/3/1 104/3/1
f 110/3/1 104/3/1 109/3/1
f 111/3/1 105/3/1 91/3/1
f 112/3/1 107/3/1 106/3/1
f 113/3/1 107/3/1 112/3/1
f 114/3/1 109/3/1 108/3/1
f 115/3/1 109/3/1 114/3/1
f 116/3/1 92/3/1 110/3/1
f 117/3/1 113/3/1 112/3/1
f 117/3/1 116/3/1 115/3/1
f 117/3/1 115/3/1 114/3/1
f 117/3/1 111/3/1 91/3/1
f 117/3/1 114/3/1 113/3/1
f 117/3/1 112/3/1 111/3/1
f 118/3/1 92/3/1 116/3/1
f 118/3/1 116/3/1 117/3/1
f 125/1/1 120/1/1 119/1/1
f 126/1/1 120/1/1 125/1/1
f 127/1/1 122/1/1 121/1/1
f 128/1/1 122/1/1 127/1/1
f 129/1/1 124/1/1 123/1/1
f 130/1/1 124/1/1 129/1/1
f 137/1/1 132/1/1 131/1/1
f 138/1/1 132/1/1 137/1/1
f 139/1/1 134/1/1 133/1/1
f 140/1/1 134/1/1 139/1/1
f 141/1/1 136/1/1 135/1/1
f 142/1/1 136/1/1 141/1/1
f 145/3/1 144/3/1 143/3/1
f 146/3/1 144/3/1 145/3/1
f 149/3/1 148/3/1 147/3/1
f 150/3/1 148/3/1 149/3/1
f 153/3/1 152/3/1 151/3/1
f 154/3/1 152/3/1 153/3/1
f 157/3/1 156/3/1 155/3/1
f 158/3/1 156/3/1 157/3/1
f 161/3/1 160/3/1 159/3/1
f 162/3/1 160/3/1 161/3/1
f 163/2/2 164/2/2 165/2/2
f 165/2/2 164/2/2 166/2/2
f 167/5/2 168/5/2 169/5/2
f 169/5/2 168/5/2 170/5/2
f 171/4/2 172/4/2 173/4/2
f 173/4/2 172/4/2 174/4/2
f 175/2/2 176/2/2 177/2/2
f 177/2/2 176/2/2 178/2/2
f 179/4/2 180/4/2 181/4/2
f 181/4/2 180/4/2 182/4/2
f 183/2/2 184/2/2 185/2/2
f 185/2/2 184/2/2 186/2/2
f 187/4/2 188/4/2 189/4/2
f 189/4/2 188/4/2 190/4/2
f 189/5/2 190/5/2 191/5/2
f 191/5/2 190/5/2 192/5/2
f 193/2/2 194/2/2 195/2/2
f 195/2/2 194/2/2 196/2/2
f 197/5/2 198/5/2 199/5/2
f 199/5/2 198/5/2 200/5/2
f 201/5/2 202/5/2 203/5/2
f 203/5/2 202/5/2 204/5/2
f 205/5/2 206/5/2 207/5/2
f 207/5/2 206/5/2 208/5/2
f 209/3/2 210/3/2 211/3/2
f 211/3/2 210/3/2 212/3/2
f 213/3/2 214/3/2 215/3/2
f 215/3/2 214/3/2 216/3/2
f 217/3/2 218/3/2 219/3/2
f 219/3/2 218/3/2 220/3/2
f 221/2/2 222/2/2 223/2/2
f 223/2/2 222/2/2 224/2/2
f 225/5/2 226/5/2 227/5/2
f 227/5/2 226/5/2 228/5/2
f 229/5/2 230/5/2 231/5/2
f 231/5/2 230/5/2 232/5/2
f 233/3/2 234/3/2 235/3/2
f 235/3/2 234/3/2 236/3/2
f 237/3/2 238/3/2 239/3/2
f 239/3/2 238/3/2 240/3/2
f 241/3/2 242/3/2 243/3/2
f 243/3/2 242/3/2 244/3/2
f 247/5/3 246/5/3 245/5/3
f 248/5/3 246/5/3 247/5/3
f 253/2/3 250/2/3 249/2/3
f 254/2/3 250/2/3 253/2/3
f 255/5/3 252/5/3 251/5/3
f 256/5/3 252/5/3 255/5/3
f 259/5/3 258/5/3 257/5/3
f 260/5/3 258/5/3 259/5/3
f 263/5/3 262/5/3 261/5/3
f 264/5/3 262/5/3 263/5/3
f 267/2/3 266/2/3 265/2/3
f 268/2/3 266/2/3 267/2/3
f 271/5/3 270/5/3 269/5/3
f 272/5/3 270/5/3 271/5/3
f 275/2/3 274/2/3 273/2/3
f 276/2/3 274/2/3 275/2/3
f 279/3/3 278/3/3 277/3/3
f 280/3/3 278/3/3 279/3/3
f 284/4/3 282/4/3 281/4/3
f 285/5/3 283/5/3 282/5/3
f 285/4/3 282/4/3 284/4/3
f 286/5/3 283/5/3 285/5/3
f 289/4/3 288/4/3 287/4/3
f 290/4/3 288/4/3 289/4/3
f 295/3/3 292/3/3 291/3/3
f 296/3/3 292/3/3 295/3/3
f 297/3/3 294/3/3 293/3/3
f 298/3/3 294/3/3 297/3/3
f 301/4/3 300/4/3 299/4/3
f 302/4/3 300/4/3 301/4/3
f 305/5/3 304/5/3 303/5/3
f 306/5/3 304/5/3 305/5/3
f 311/3/3 308/3/3 307/3/3
f 312/3/3 308/3/3 311/3/3
f 313/3/3 310/3/3 309/3/3
f 314/3/3 310/3/3 313/3/3
f 319/3/3 316/3/3 315/3/3
f 320/3/3 316/3/3 319/3/3
f 321/3/3 318/3/3 317/3/3
f 322/3/3 318/3/3 321/3/3
f 325/3/3 324/3/3 323/3/3
f 326/3/3 324/3/3 325/3/3
f 327/2/4 328/2/4 329/2/4
f 329/2/4 328/2/4 330/2/4
f 331/2/4 332/2/4 333/2/4
f 333/2/4 332/2/4 334/2/4
f 335/5/4 336/5/4 337/5/4
f 337/5/4 336/5/4 338/5/4
f 339/5/4 340/5/4 341/5/4
f 341/5/4 340/5/4 342/5/4
f 343/5/4 344/5/4 345/5/4
f 345/5/4 344/5/4 346/5/4
f 347/1/4 348/1/4 349/1/4
f 349/1/4 348/1/4 350/1/4
f 351/1/4 352/1/4 353/1/4
f 353/1/4 352/1/4 354/1/4
f 355/1/4 356/1/4 357/1/4
f 357/1/4 356/1/4 358/1/4
f 359/1/4 360/1/4 361/1/4
f 361/1/4 360/1/4 362/1/4
f 363/2/4 364/2/4 367/2/4
f 367/2/4 364/2/4 368/2/4
f 363/2/4 367/2/4 369/2/4
f 368/2/4 364/2/4 370/2/4
f 363/2/4 369/2/4 371/2/4
f 369/2/4 370/2/4 371/2/4
f 370/2/4 364/2/4 372/2/4
f 371/2/4 370/2/4 372/2/4
f 363/2/4 371/2/4 373/2/4
f 372/2/4 364/2/4 374/2/4
f 363/2/4 373/2/4 375/2/4
f 373/2/4 374/2/4 375/2/4
f 374/2/4 364/2/4 376/2/4
f 375/2/4 374/2/4 376/2/4
f 363/2/4 375/2/4 377/2/4
f 376/2/4 364/2/4 378/2/4
f 363/2/4 377/2/4 379/2/4
f 377/2/4 378/2/4 379/2/4
f 378/2/4 364/2/4 380/2/4
f 379/2/4 378/2/4 380/2/4
f 363/2/4 379/2/4 381/2/4
f 380/2/4 364/2/4 382/2/4
f 363/2/4 381/2/4 383/2/4
f 381/2/4 382/2/4 383/2/4
f 382/2/4 364/2/4 384/2/4
f 383/2/4 382/2/4 384/2/4
f 365/5/4 366/5/4 385/5/4
f 385/5/4 366/5/4 386/5/4
f 387/5/4 388/5/4 389/5/4
f 389/5/4 388/5/4 390/5/4
f 391/3/4 392/3/4 393/3/4
f 393/3/4 392/3/4 394/3/4
f 395/3/4 396/3/4 399/3/4
f 399/3/4 396/3/4 400/3/4
f 397/3/4 398/3/4 401/3/4
f 401/3/4 398/3/4 402/3/4
f 403/5/4 404/5/4 405/5/4
f 405/5/4 404/5/4 406/5/4
f 407/4/4 408/4/4 409/4/4
f 409/4/4 408/4/4 410/4/4
f 411/3/4 412/3/4 415/3/4
f 415/3/4 412/3/4 416/3/4
f 413/3/4 414/3/4 417/3/4
f 417/3/4 414/3/4 418/3/4
f 419/4/4 420/4/4 421/4/4
f 421/4/4 420/4/4 422/4/4
f 423/1/4 424/1/4 425/1/4
f 425/1/4 424/1/4 426/1/4
f 427/1/4 428/1/4 429/1/4
f 429/1/4 428/1/4 430/1/4
f 431/4/4 432/4/4 434/4/4
f 434/4/4 432/4/4 435/4/4
f 431/4/4 434/4/4 436/4/4
f 435/4/4 432/4/4 437/4/4
f 431/4/4 436/4/4 438/4/4
f 436/4/4 437/4/4 438/4/4
f 437/4/4 432/4/4 439/4/4
f 438/4/4 437/4/4 439/4/4
f 431/4/4 438/4/4 440/4/4
f 439/4/4 432/4/4 441/4/4
f 431/4/4 440/4/4 442/4/4
f 440/4/4 441/4/4 442/4/4
f 432/5/4 433/5/4 443/5/4
f 442/4/4 441/4/4 443/4/4
f 441/4/4 432/4/4 443/4/4
f 443/5/4 433/5/4 444/5/4
f 445/3/4 446/3/4 449/3/4
f 449/3/4 446/3/4 450/3/4
f 447/3/4 448/3/4 451/3/4
f 451/3/4 448/3/4 452/3/4
f 453/1/4 454/1/4 457/1/4
f 457/1/4 454/1/4 458/1/4
f 455/1/4 456/1/4 459/1/4
f 459/1/4 456/1/4 460/1/4
f 461/1/4 462/1/4 465/1/4
f 465/1/4 462/1/4 466/1/4
f 463/1/4 464/1/4 467/1/4
f 467/1/4 464/1/4 468/1/4
f 469/3/4 470/3/4 471/3/4
f 471/3/4 470/3/4 472/3/4
f 472/3/4 470/3/4 473/3/4
f 473/3/4 470/3/4 474/3/4
f 469/3/4 471/3/4 475/3/4
f 472/3/4 473/3/4 476/3/4
f 476/3/4 473/3/4 477/3/4
f 474/3/4 470/3/4 478/3/4
f 476/3/4 477/3/4 479/3/4
f 477/3/4 478/3/4 479/3/4
f 469/3/4 475/3/4 479/3/4
f 475/3/4 476/3/4 479/3/4
f 479/3/4 478/3/4 480/3/4
f 480/3/4 478/3/4 481/3/4
f 478/3/4 470/3/4 482/3/4
f 481/3/4 478/3/4 482/3/4
f 469/3/4 479/3/4 483/3/4
f 480/3/4 481/3/4 484/3/4
f 484/3/4 481/3/4 485/3/4
f 482/3/4 470/3/4 486/3/4
f 469/3/4 483/3/4 487/3/4
f 485/3/4 486/3/4 487/3/4
f 484/3/4 485/3/4 487/3/4
f 483/3/4 484/3/4 487/3/4
f 486/3/4 470/3/4 488/3/4
f 487/3/4 486/3/4 488/3/4
f 491/2/5 490/2/5 489/2/5
f 492/2/5 490/2/5 491/2/5
f 497/4/5 496/4/5 495/4/5
f 498/4/5 496/4/5 497/4/5
f 499/3/5 494/3/5 493/3/5
f 500/3/5 494/3/5 499/3/5
f 503/2/5 502/2/5 501/2/5
f 504/2/5 502/2/5 503/2/5
f 507/2/5 506/2/5 505/2/5
f 508/2/5 506/2/5 507/2/5
f 517/2/5 510/2/5 509/2/5
f 518/2/5 510/2/5 517/2/5
f 519/2/5 512/2/5 511/2/5
f 520/2/5 512/2/5 519/2/5
f 521/2/5 514/2/5 513/2/5
f 522/2/5 514/2/5 521/2/5
f 523/2/5 516/2/5 515/2/5
f 524/2/5 516/2/5 523/2/5
f 527/4/5 526/4/5 525/4/5
f 528/4/5 526/4/5 527/4/5
f 531/4/5 530/4/5 529/4/5
f 532/4/5 530/4/5 531/4/5
f 537/4/5 534/4/5 533/4/5
f 538/4/5 534/4/5 537/4/5
f 539/4/5 536/4/5 535/4/5
f 540/4/5 536/4/5 539/4/5
f 543/5/5 542/5/5 541/5/5
f 544/5/5 542/5/5 543/5/5
f 545/5/5 543/5/5 541/5/5
f 546/5/5 542/5/5 544/5/5
f 547/5/5 545/5/5 541/5/5
f 547/5/5 546/5/5 545/5/5
f 548/5/5 542/5/5 546/5/5
f 548/5/5 546/5/5 547/5/5
f 551/3/5 550/3/5 549/3/5
f 552/3/5 550/3/5 551/3/5
f 555/3/5 554/3/5 553/3/5
f 556/3/5 554/3/5 555/3/5
f 559/3/5 558/3/5 557/3/5
f 560/3/5 558/3/5 559/3/5
f 565/3/5 562/3/5 561/3/5
f 566/3/5 562/3/5 565/3/5
f 567/3/5 564/3/5 563/3/5
f 568/3/5 564/3/5 567/3/5
f 571/3/5 570/3/5 569/3/5
f 572/3/5 570/3/5 571/3/5
f 575/3/5 574/3/5 573/3/5
f 576/3/5 574/3/5 575/3/5
f 579/3/5 578/3/5 577/3/5
f 580/3/5 578/3/5 579/3/5
f 585/3/5 582/3/5 581/3/5
f 586/3/5 582/3/5 585/3/5
f 587/3/5 584/3/5 583/3/5
f 588/3/5 584/3/5 587/3/5
f 589/2/6 590/2/6 591/2/6
f 591/2/6 590/2/6 592/2/6
f 593/2/6 594/2/6 595/2/6
f 595/2/6 594/2/6 596/2/6
f 597/2/6 598/2/6 605/2/6
f 605/2/6 598/2/6 606/2/6
f 599/2/6 600/2/6 607/2/6
f 607/2/6 600/2/6 608/2/6
f 601/2/6 602/2/6 609/2/6
f 609/2/6 602/2/6 610/2/6
f 603/2/6 604/2/6 611/2/6
f 611/2/6 604/2/6 612/2/6
f 613/4/6 614/4/6 615/4/6
f 615/4/6 614/4/6 616/4/6
f 617/4/6 618/4/6 619/4/6
f 619/4/6 618/4/6 620/4/6
f 621/4/6 622/4/6 625/4/6
f 625/4/6 622/4/6 626/4/6
f 623/4/6 624/4/6 627/4/6
f 627/4/6 624/4/6 628/4/6
f 629/3/6 630/3/6 631/3/6
f 631/3/6 630/3/6 632/3/6
f 633/3/6 634/3/6 635/3/6
f 635/3/6 634/3/6 636/3/6
f 637/3/6 638/3/6 639/3/6
f 639/3/6 638/3/6 640/3/6
f 641/3/6 642/3/6 645/3/6
f 645/3/6 642/3/6 646/3/6
f 643/3/6 644/3/6 647/3/6
f 647/3/6 644/3/6 648/3/6
f 649/5/6 650/5/6 651/5/6
f 651/5/6 650/5/6 652/5/6
f 653/5/6 654/5/6 655/5/6
f 655/5/6 654/5/6 656/5/6
f 653/5/6 655/5/6 657/5/6
f 656/5/6 654/5/6 658/5/6
f 653/5/6 657/5/6 659/5/6
f 657/5/6 658/5/6 659/5/6
f 658/5/6 654/5/6 660/5/6
f 659/5/6 658/5/6 660/5/6
f 661/5/6 662/5/6 663/5/6
f 663/5/6 662/5/6 664/5/6
f 661/5/6 663/5/6 665/5/6
f 664/5/6 662/5/6 666/5/6
f 661/5/6 665/5/6 667/5/6
f 665/5/6 666/5/6 667/5/6
f 666/5/6 662/5/6 668/5/6
f 667/5/6 666/5/6 668/5/6
f 669/5/6 670/5/6 671/5/6
f 671/5/6 670/5/6 672/5/6
f 669/5/6 671/5/6 673/5/6
f 672/5/6 670/5/6 674/5/6
f 669/5/6 673/5/6 675/5/6
f 673/5/6 674/5/6 675/5/6
f 674/5/6 670/5/6 676/5/6
f 675/5/6 674/5/6 676/5/6
f 677/3/6 678/3/6 679/3/6
f 679/3/6 678/3/6 680/3/6
f 681/3/6 682/3/6 683/3/6
f 683/3/6 682/3/6 684/3/6
f 685/3/6 686/3/6 687/3/6
f 687/3/6 686/3/6 688/3/6
f 689/3/6 690/3/6 693/3/6
f 693/3/6 690/3/6 694/3/6
f 691/3/6 692/3/6 695/3/6
f 695/3/6 692/3/6 696/3/6
f 697/5/6 698/5/6 699/5/6
f 699/5/6 698/5/6 700/5/6
f 697/5/6 699/5/6 701/5/6
f 700/5/6 698/5/6 702/5/6
f 697/5/6 701/5/6 703/5/6
f 701/5/6 702/5/6 703/5/6
f 702/5/6 698/5/6 704/5/6
f 703/5/6 702/5/6 704/5/6
f 705/5/6 706/5/6 707/5/6
f 707/5/6 706/5/6 708/5/6
f 705/5/6 707/5/6 709/5/6
f 708/5/6 706/5/6 710/5/6
f 705/5/6 709/5/6 711/5/6
f 709/5/6 710/5/6 711/5/6
f 710/5/6 706/5/6 712/5/6
f 711/5/6 710/5/6 712/5/6
f 713/5/6 714/5/6 715/5/6
f 715/5/6 714/5/6 716/5/6
f 717/3/6 718/3/6 719/3/6
f 719/3/6 718/3/6 720/3/6
f 721/3/6 722/3/6 723/3/6
f 723/3/6 722/3/6 724/3/6
f 721/3/6 723/3/6 725/3/6
f 724/3/6 722/3/6 726/3/6
f 721/3/6 725/3/6 727/3/6
f 725/3/6 726/3/6 727/3/6
f 726/3/6 722/3/6 728/3/6
f 727/3/6 726/3/6 728/3/6
